<svg width="16" height="19" viewBox="0 0 16 19" fill="none" xmlns="http://www.w3.org/2000/svg">
<path d="M1.03076 15L0.405756 15L0.405756 15L1.03076 15ZM2.53074 18L2.53074 17.375H2.53074V18ZM13.8583 18L13.8583 18.625H13.8583V18ZM4.03076 8H3.40576C3.40576 8.25279 3.55804 8.48069 3.79158 8.57742C4.02513 8.67416 4.29395 8.62069 4.4727 8.44194L4.03076 8ZM6.53076 5.5L6.9727 5.05806C6.72863 4.81398 6.3329 4.81398 6.08882 5.05806L6.53076 5.5ZM9.03076 8L8.58882 8.44194C8.76757 8.62069 9.03639 8.67416 9.26994 8.57742C9.50349 8.48069 9.65576 8.25279 9.65576 8H9.03076ZM0.405756 3V15H1.65576V3H0.405756ZM0.405756 15C0.405766 15.345 0.383467 15.6094 0.37644 16.0163C0.370312 16.3711 0.380108 16.77 0.469609 17.1424C0.561293 17.5238 0.746858 17.9193 1.12116 18.2106C1.49282 18.4998 1.97196 18.625 2.53074 18.625V17.375C2.15157 17.375 1.97425 17.2906 1.8888 17.2241C1.80599 17.1596 1.73381 17.0534 1.68499 16.8502C1.63399 16.638 1.62052 16.3697 1.62625 16.0379C1.63108 15.7582 1.65576 15.3167 1.65576 15L0.405756 15ZM2.53074 18.625L13.8583 18.625L13.8583 17.375L2.53074 17.375L2.53074 18.625ZM13.8583 18.625C14.3255 18.625 14.7394 18.4974 15.0575 18.2056C15.3645 17.924 15.5095 17.5555 15.5829 17.2171C15.6562 16.8794 15.6704 16.5134 15.6704 16.176C15.6704 16.0046 15.6666 15.8305 15.6629 15.6642C15.6592 15.4953 15.6557 15.334 15.6557 15.1765H14.4057C14.4057 15.3499 14.4096 15.525 14.4132 15.6915C14.4169 15.8605 14.4204 16.0207 14.4204 16.176C14.4204 16.4922 14.4053 16.7493 14.3613 16.9521C14.3175 17.1541 14.2573 17.2434 14.2126 17.2844C14.179 17.3152 14.0945 17.375 13.8583 17.375V18.625ZM15.6557 15.1765V3H14.4057V15.1765H15.6557ZM1.03076 15.625H15.0307V14.375H1.03076V15.625ZM4.03076 0.375H3.03075V1.625H4.03076V0.375ZM3.40576 1V8H4.65576V1H3.40576ZM4.4727 8.44194L6.9727 5.94194L6.08882 5.05806L3.58882 7.55806L4.4727 8.44194ZM6.08882 5.94194L8.58882 8.44194L9.4727 7.55806L6.9727 5.05806L6.08882 5.94194ZM13.0307 0.375H9.03076V1.625H13.0307V0.375ZM9.03076 0.375H4.03076V1.625H9.03076V0.375ZM9.65576 8V1H8.40576V8H9.65576ZM15.6557 3C15.6557 1.55025 14.4805 0.375 13.0307 0.375V1.625C13.7901 1.625 14.4057 2.24061 14.4057 3H15.6557ZM1.65576 3C1.65576 2.24061 2.27136 1.625 3.03075 1.625V0.375C1.58101 0.375 0.405756 1.55025 0.405756 3H1.65576Z" fill="#2531B6"/>
</svg>
