<svg width="17" height="16" viewBox="0 0 17 16" fill="none" xmlns="http://www.w3.org/2000/svg">
<path d="M1 5.57353H16V4.57353H1V5.57353ZM3.7143 -1.92756e-06L3.71429 3.41912L4.71429 3.41912L4.7143 1.92756e-06L3.7143 -1.92756e-06ZM12.2857 -1.97239e-06L12.2857 3.41912L13.2857 3.41912L13.2857 1.97239e-06L12.2857 -1.97239e-06ZM2.07143 15.5H14.9286V14.5H2.07143V15.5ZM14.9286 15.5C15.81 15.5 16.5 14.7686 16.5 13.8971H15.5C15.5 14.2438 15.2306 14.5 14.9286 14.5V15.5ZM16.5 13.8971V2.86765H15.5V13.8971H16.5ZM16.5 2.86765C16.5 1.99614 15.81 1.26471 14.9286 1.26471V2.26471C15.2306 2.26471 15.5 2.52089 15.5 2.86765H16.5ZM14.9286 1.26471H2.07143V2.26471H14.9286V1.26471ZM2.07143 1.26471C1.18999 1.26471 0.500007 1.99614 0.500007 2.86765H1.50001C1.50001 2.52089 1.76941 2.26471 2.07143 2.26471V1.26471ZM0.500007 2.86765V13.8971H1.50001V2.86765H0.500007ZM0.500007 13.8971C0.500007 14.7686 1.19 15.5 2.07143 15.5V14.5C1.7694 14.5 1.50001 14.2438 1.50001 13.8971H0.500007ZM2.92858 7.22794H5.50001V6.22794H2.92858V7.22794ZM5.32143 7.05882V8.60294H6.32143V7.05882H5.32143ZM5.50001 8.43382H2.92858V9.43382H5.50001V8.43382ZM3.10715 8.60294V7.05882H2.10715V8.60294H3.10715ZM2.92858 8.43382C3.04076 8.43382 3.10715 8.5233 3.10715 8.60294H2.10715C2.10715 9.04806 2.46135 9.43382 2.92858 9.43382V8.43382ZM5.32143 8.60294C5.32143 8.5233 5.38782 8.43382 5.50001 8.43382V9.43382C5.96723 9.43382 6.32143 9.04807 6.32143 8.60294H5.32143ZM5.50001 7.22794C5.38782 7.22794 5.32143 7.13846 5.32143 7.05882H6.32143C6.32143 6.6137 5.96723 6.22794 5.50001 6.22794V7.22794ZM2.92858 6.22794C2.46135 6.22794 2.10715 6.6137 2.10715 7.05882H3.10715C3.10715 7.13846 3.04076 7.22794 2.92858 7.22794V6.22794ZM7.21429 7.22794H9.78572V6.22794H7.21429V7.22794ZM9.60715 7.05882V8.60294H10.6071V7.05882H9.60715ZM9.78572 8.43382H7.21429V9.43382H9.78572V8.43382ZM7.39286 8.60294V7.05882H6.39286V8.60294H7.39286ZM7.21429 8.43382C7.32648 8.43382 7.39286 8.5233 7.39286 8.60294H6.39286C6.39286 9.04806 6.74706 9.43382 7.21429 9.43382V8.43382ZM9.60715 8.60294C9.60715 8.5233 9.67353 8.43382 9.78572 8.43382V9.43382C10.2529 9.43382 10.6071 9.04807 10.6071 8.60294H9.60715ZM9.78572 7.22794C9.67353 7.22794 9.60715 7.13846 9.60715 7.05882H10.6071C10.6071 6.6137 10.2529 6.22794 9.78572 6.22794V7.22794ZM7.21429 6.22794C6.74706 6.22794 6.39286 6.6137 6.39286 7.05882H7.39286C7.39286 7.13846 7.32648 7.22794 7.21429 7.22794V6.22794ZM11.5 7.22794H14.0714V6.22794H11.5V7.22794ZM13.8929 7.05882V8.60294H14.8929V7.05882H13.8929ZM14.0714 8.43382H11.5V9.43382H14.0714V8.43382ZM11.6786 8.60294V7.05882H10.6786V8.60294H11.6786ZM11.5 8.43382C11.6122 8.43382 11.6786 8.5233 11.6786 8.60294H10.6786C10.6786 9.04806 11.0328 9.43382 11.5 9.43382V8.43382ZM13.8929 8.60294C13.8929 8.5233 13.9592 8.43382 14.0714 8.43382V9.43382C14.5387 9.43382 14.8929 9.04807 14.8929 8.60294H13.8929ZM14.0714 7.22794C13.9592 7.22794 13.8929 7.13846 13.8929 7.05882H14.8929C14.8929 6.6137 14.5387 6.22794 14.0714 6.22794V7.22794ZM11.5 6.22794C11.0328 6.22794 10.6786 6.6137 10.6786 7.05882H11.6786C11.6786 7.13846 11.6122 7.22794 11.5 7.22794V6.22794ZM2.92858 10.5368H5.50001V9.53677H2.92858V10.5368ZM5.32143 10.3676V11.9118H6.32143V10.3676H5.32143ZM5.50001 11.7426H2.92858V12.7426H5.50001V11.7426ZM3.10715 11.9118V10.3676H2.10715V11.9118H3.10715ZM2.92858 11.7426C3.04076 11.7426 3.10715 11.8321 3.10715 11.9118H2.10715C2.10715 12.3569 2.46135 12.7426 2.92858 12.7426V11.7426ZM5.32143 11.9118C5.32143 11.8321 5.38782 11.7426 5.50001 11.7426V12.7426C5.96723 12.7426 6.32143 12.3569 6.32143 11.9118H5.32143ZM5.50001 10.5368C5.38782 10.5368 5.32143 10.4473 5.32143 10.3676H6.32143C6.32143 9.92253 5.96723 9.53677 5.50001 9.53677V10.5368ZM2.92858 9.53677C2.46135 9.53677 2.10715 9.92253 2.10715 10.3676H3.10715C3.10715 10.4473 3.04076 10.5368 2.92858 10.5368V9.53677ZM7.21429 10.5368H9.78572V9.53677H7.21429V10.5368ZM9.60715 10.3676V11.9118H10.6071V10.3676H9.60715ZM9.78572 11.7426H7.21429V12.7426H9.78572V11.7426ZM7.39286 11.9118V10.3676H6.39286V11.9118H7.39286ZM7.21429 11.7426C7.32648 11.7426 7.39286 11.8321 7.39286 11.9118H6.39286C6.39286 12.3569 6.74706 12.7426 7.21429 12.7426V11.7426ZM9.60715 11.9118C9.60715 11.8321 9.67353 11.7426 9.78572 11.7426V12.7426C10.2529 12.7426 10.6071 12.3569 10.6071 11.9118H9.60715ZM9.78572 10.5368C9.67353 10.5368 9.60715 10.4473 9.60715 10.3676H10.6071C10.6071 9.92253 10.2529 9.53677 9.78572 9.53677V10.5368ZM7.21429 9.53677C6.74706 9.53677 6.39286 9.92253 6.39286 10.3676H7.39286C7.39286 10.4473 7.32648 10.5368 7.21429 10.5368V9.53677Z" fill="#C1C7F7"/>
</svg>
