<svg width="13" height="13" viewBox="0 0 13 13" fill="none" xmlns="http://www.w3.org/2000/svg">
<path d="M5.00003 3.0001L5.35357 3.35366C5.44735 3.25989 5.50003 3.13271 5.50003 3.0001C5.50003 2.86749 5.44735 2.74031 5.35358 2.64654L5.00003 3.0001ZM3.50003 4.50003L3.14648 4.14647C3.05271 4.24024 3.00003 4.36742 3.00003 4.50003C3.00003 4.63264 3.05271 4.75982 3.14648 4.85359L3.50003 4.50003ZM8.5 9.5L8.14644 9.85355C8.3417 10.0488 8.65827 10.0488 8.85353 9.85357L8.5 9.5ZM10 8.0001L10.3536 7.64654C10.1583 7.45129 9.84175 7.45128 9.64649 7.64653L10 8.0001ZM1.5 2.50007L1.14644 2.14653C1.06995 2.22302 1.02032 2.32227 1.00503 2.42936L1.5 2.50007ZM2.99997 1.00004L3.35352 0.646486C3.25975 0.552717 3.13257 0.500039 2.99996 0.50004C2.86735 0.500041 2.74018 0.552723 2.64641 0.646494L2.99997 1.00004ZM12 10L12.3536 10.3536C12.4473 10.2598 12.5 10.1326 12.5 10C12.5 9.86739 12.4473 9.74021 12.3535 9.64644L12 10ZM10.5 11.5L10.5707 11.995C10.6778 11.9797 10.7771 11.9301 10.8536 11.8536L10.5 11.5ZM4.64648 2.64654L3.14648 4.14647L3.85358 4.85359L5.35357 3.35366L4.64648 2.64654ZM3.14648 4.85359L8.14644 9.85355L8.85355 9.14645L3.85358 4.14648L3.14648 4.85359ZM8.85353 9.85357L10.3536 8.35367L9.64649 7.64653L8.14646 9.14643L8.85353 9.85357ZM1.85356 2.85362L3.35353 1.35359L2.64641 0.646494L1.14644 2.14653L1.85356 2.85362ZM2.64642 1.35359L4.64648 3.35365L5.35358 2.64654L3.35352 0.646486L2.64642 1.35359ZM9.64648 8.35366L11.6465 10.3536L12.3535 9.64644L10.3536 7.64654L9.64648 8.35366ZM11.6464 9.64645L10.1464 11.1464L10.8536 11.8536L12.3536 10.3536L11.6464 9.64645ZM10.5 11.5C10.4293 11.005 10.4295 11.005 10.4297 11.005C10.4298 11.005 10.43 11.0049 10.4301 11.0049C10.4303 11.0049 10.4304 11.0049 10.4305 11.0049C10.4307 11.0048 10.4307 11.0048 10.4305 11.0049C10.4301 11.0049 10.4288 11.0051 10.4267 11.0053C10.4226 11.0059 10.4152 11.0068 10.4047 11.0079C10.3838 11.0103 10.3503 11.0136 10.3054 11.0171C10.2155 11.024 10.0799 11.0312 9.90625 11.0312C9.55857 11.0312 9.0607 11.0022 8.47306 10.8847C7.30003 10.6501 5.77071 10.0636 4.35355 8.64645L3.64645 9.35355C5.22929 10.9364 6.94997 11.5999 8.27694 11.8653C8.93929 11.9978 9.50393 12.0312 9.90625 12.0312C10.1076 12.0312 10.2689 12.0229 10.3821 12.0142C10.4387 12.0098 10.4834 12.0054 10.5152 12.0018C10.5311 12.0001 10.5437 11.9985 10.553 11.9973C10.5576 11.9968 10.5615 11.9962 10.5644 11.9958C10.5659 11.9956 10.5672 11.9955 10.5682 11.9953C10.5687 11.9953 10.5692 11.9952 10.5696 11.9951C10.5698 11.9951 10.5701 11.9951 10.5702 11.995C10.5705 11.995 10.5707 11.995 10.5 11.5ZM4.35355 8.64645C2.93639 7.22929 2.34989 5.69998 2.11529 4.52698C1.99776 3.93934 1.96875 3.44148 1.96875 3.09381C1.96875 2.92015 1.97599 2.78455 1.9829 2.69467C1.98636 2.64975 1.98973 2.61631 1.99206 2.59533C1.99322 2.58484 1.99413 2.57746 1.99466 2.57333C1.99492 2.57127 1.99509 2.57001 1.99514 2.56958C1.99517 2.56937 1.99518 2.56936 1.99515 2.56956C1.99513 2.56966 1.99511 2.56981 1.99508 2.57001C1.99507 2.57012 1.99504 2.57031 1.99503 2.57036C1.99501 2.57057 1.99497 2.57078 1.5 2.50007C1.00503 2.42936 1.00499 2.42961 1.00495 2.42986C1.00494 2.42997 1.0049 2.43024 1.00487 2.43045C1.00481 2.43087 1.00475 2.43134 1.00467 2.43186C1.00453 2.43292 1.00435 2.43418 1.00415 2.43566C1.00375 2.43862 1.00325 2.44243 1.00266 2.44708C1.00148 2.45637 0.999939 2.46902 0.998175 2.48489C0.994648 2.51664 0.990205 2.56133 0.985848 2.61797C0.977137 2.73121 0.96875 2.89248 0.96875 3.09381C0.96875 3.49613 1.00224 4.06075 1.13471 4.7231C1.40011 6.05005 2.06361 7.77071 3.64645 9.35355L4.35355 8.64645ZM6.99988 3.00007C7.88601 3.00009 8.63094 3.29849 9.15166 3.80396C9.6701 4.3072 9.99994 5.04811 9.99993 6.00009L10.9999 6.0001C10.9999 4.80565 10.5798 3.79657 9.84818 3.08642C9.11888 2.37849 8.11378 2.0001 6.9999 2.00007L6.99988 3.00007ZM6.99997 1C8.65588 1.00002 9.88929 1.4715 10.7089 2.29111C11.5285 3.11071 12 4.34412 12 6.00005L13 6.00005C13 4.15602 12.4714 2.63941 11.416 1.584C10.3606 0.52858 8.84398 2.03407e-05 6.99998 0L6.99997 1Z" fill="#808293"/>
</svg>
