<svg width="13" height="12" viewBox="0 0 13 12" fill="none" xmlns="http://www.w3.org/2000/svg">
<mask id="path-1-inside-1" fill="white">
<path d="M0 9V0L13 0V9H6.5L3 12V9H0Z"/>
</mask>
<path d="M0 0V-1C-0.552285 -1 -1 -0.552285 -1 0L0 0ZM0 9H-1C-1 9.55228 -0.552285 10 0 10V9ZM13 0L14 0C14 -0.552285 13.5523 -1 13 -1V0ZM13 9V10C13.5523 10 14 9.55228 14 9H13ZM3 9H4C4 8.44772 3.55228 8 3 8V9ZM6.5 9V8C6.26129 8 6.03045 8.08539 5.84921 8.24074L6.5 9ZM3 12H2C2 12.3905 2.22734 12.7453 2.58214 12.9085C2.93694 13.0717 3.35428 13.0134 3.65079 12.7593L3 12ZM-1 0V9H1V0L-1 0ZM13 -1L0 -1V1L13 1V-1ZM14 9V0L12 0V9H14ZM0 10H3V8H0V10ZM6.5 10H13V8H6.5V10ZM2 9V12H4V9H2ZM3.65079 12.7593L7.15079 9.75926L5.84921 8.24074L2.34921 11.2407L3.65079 12.7593Z" fill="#808293" mask="url(#path-1-inside-1)"/>
</svg>
