<svg width="15" height="16" viewBox="0 0 15 16" fill="none" xmlns="http://www.w3.org/2000/svg">
<g clip-path="url(#clip0)">
<path d="M10.5 14.5L10.1233 14.8288C10.2181 14.9374 10.3553 14.9999 10.4996 15C10.6439 15.0001 10.7811 14.9379 10.8762 14.8294L10.5 14.5ZM11 1C11 0.723858 10.7762 0.5 10.5 0.5C10.2239 0.5 10 0.723858 10 1H11ZM14.3978 10.8078C14.5797 10.6 14.5588 10.2842 14.351 10.1022C14.1433 9.92032 13.8274 9.94126 13.6455 10.149L14.3978 10.8078ZM7.38613 10.1712C7.20456 9.96319 6.88871 9.94171 6.68065 10.1233C6.47259 10.3048 6.45111 10.6207 6.63267 10.8288L7.38613 10.1712ZM11 4V1H10V4H11ZM10 1L10 14.5L11 14.5L11 1L10 1ZM12.8831 12.5375L14.3978 10.8078L13.6455 10.149L12.1308 11.8787L12.8831 12.5375ZM13.6455 10.149L10.1239 14.1706L10.8762 14.8294L14.3978 10.8078L13.6455 10.149ZM10.8767 14.1712L7.38613 10.1712L6.63267 10.8288L10.1233 14.8288L10.8767 14.1712ZM6.63267 10.8288L8.12327 12.5369L8.87673 11.8794L7.38613 10.1712L6.63267 10.8288Z" fill="#C1C7F7"/>
<path d="M4.941 14.181C5.067 14.181 5.169 14.22 5.247 14.298C5.331 14.37 5.373 14.466 5.373 14.586C5.373 14.706 5.331 14.805 5.247 14.883C5.163 14.961 5.061 15 4.941 15H0.837C0.711 15 0.603 14.958 0.513 14.874C0.429 14.784 0.387 14.685 0.387 14.577C0.387 14.481 0.42 14.391 0.486 14.307L4.158 9.519H1.143C1.017 9.519 0.912 9.48 0.828 9.402C0.75 9.324 0.711 9.225 0.711 9.105C0.711 8.985 0.75 8.889 0.828 8.817C0.912 8.739 1.017 8.7 1.143 8.7H4.995C5.115 8.7 5.223 8.742 5.319 8.826C5.415 8.904 5.463 9.003 5.463 9.123C5.463 9.207 5.43 9.297 5.364 9.393L1.692 14.181H4.941Z" fill="#C1C7F7"/>
<path d="M5.589 6.442C5.607 6.496 5.616 6.553 5.616 6.613C5.616 6.733 5.574 6.832 5.49 6.91C5.412 6.988 5.319 7.027 5.211 7.027C5.127 7.027 5.049 7.003 4.977 6.955C4.911 6.901 4.857 6.829 4.815 6.739L4.257 5.416H1.476L0.927 6.748C0.897 6.838 0.846 6.907 0.774 6.955C0.708 7.003 0.633 7.027 0.549 7.027C0.423 7.027 0.327 6.994 0.261 6.928C0.195 6.862 0.162 6.772 0.162 6.658C0.162 6.634 0.168 6.586 0.18 6.514L2.475 0.952C2.517 0.856 2.574 0.784 2.646 0.736C2.724 0.682 2.811 0.661 2.907 0.673C2.997 0.673 3.078 0.697 3.15 0.745C3.222 0.793 3.273 0.862 3.303 0.952L5.589 6.442ZM3.915 4.597L2.862 2.077L1.818 4.597H3.915Z" fill="#C1C7F7"/>
</g>
<defs>
<clipPath id="clip0">
<rect width="15" height="16" fill="white"/>
</clipPath>
</defs>
</svg>
